<svg xmlns="http://www.w3.org/2000/svg" width="15" height="15" viewBox="0 0 18 18">
  <path id="Icon_color" data-name="Icon color" d="M14.727,18H4.909a1.638,1.638,0,0,1-1.637-1.636H14.727a1.638,1.638,0,0,0,1.636-1.636V3.272A1.638,1.638,0,0,1,18,4.909v9.818A3.276,3.276,0,0,1,14.727,18Zm-1.636-3.272H1.636A1.638,1.638,0,0,1,0,13.091V1.636A1.638,1.638,0,0,1,1.636,0H13.091a1.638,1.638,0,0,1,1.636,1.636V13.091A1.638,1.638,0,0,1,13.091,14.727ZM1.636,1.636V13.091H13.091V1.636Zm4.7,8.467a.613.613,0,0,1-.613-.612V5.236a.614.614,0,0,1,.957-.507L9.867,6.856a.606.606,0,0,1,0,1.015L6.685,10A.613.613,0,0,1,6.341,10.1Z"/>
</svg>
