<svg xmlns="http://www.w3.org/2000/svg" width="15" height="13" viewBox="0 0 18 14">
  <path id="Icon_color" data-name="Icon color" d="M16.2,14H1.8A1.777,1.777,0,0,1,0,12.25V4.375A1.778,1.778,0,0,1,1.8,2.625H2.853a1.842,1.842,0,0,0,1.278-.516L5.508.77A2.722,2.722,0,0,1,7.416,0h3.168a2.756,2.756,0,0,1,1.908.77l1.377,1.339a1.838,1.838,0,0,0,1.275.516H16.2A1.778,1.778,0,0,1,18,4.375V12.25A1.777,1.777,0,0,1,16.2,14ZM9,4.375a3.555,3.555,0,0,0-3.6,3.5,3.555,3.555,0,0,0,3.6,3.5,3.632,3.632,0,0,0,2.546-1.025A3.432,3.432,0,0,0,12.6,7.875,3.555,3.555,0,0,0,9,4.375Z"/>
</svg>
