<svg xmlns="http://www.w3.org/2000/svg" width="15" height="11.375" viewBox="0 0 18 11.375">
  <path id="Icon_color" data-name="Icon color" d="M17.182,11.375H12.952a2.432,2.432,0,0,0-.106-1.9L11.659,7.117a3.944,3.944,0,0,0-.392-.617H14.54a2.446,2.446,0,0,1,2.193,1.348L17.911,10.2a.8.8,0,0,1-.034.791A.815.815,0,0,1,17.182,11.375Zm-6.547,0H.816a.818.818,0,0,1-.7-.388A.805.805,0,0,1,.088,10.2L1.266,7.848A2.444,2.444,0,0,1,3.461,6.5H7.99a2.444,2.444,0,0,1,2.2,1.348L11.364,10.2a.8.8,0,0,1-.033.791A.818.818,0,0,1,10.636,11.375Zm1.637-6.5a2.438,2.438,0,1,1,2.455-2.438A2.449,2.449,0,0,1,12.273,4.875Zm-6.547,0A2.438,2.438,0,1,1,8.181,2.437,2.45,2.45,0,0,1,5.726,4.875Z" transform="translate(0.001)"/>
</svg>
